<svg width="160" height="175" viewBox="0 0 160 175" fill="none" xmlns="http://www.w3.org/2000/svg">
<g id="sidecharacter">
<g id="Group">
<path id="Vector" d="M18.9902 159.03C16.8102 159.03 15.0402 157.26 15.0402 155.08C15.0402 152.9 16.8102 151.14 18.9902 151.14H46.3002C46.6002 148.44 47.0202 144.5 47.4502 140.08C46.3702 139.59 45.4102 138.77 44.6402 137.68C41.8702 138.1 39.3202 138.32 37.0202 138.32C23.2602 138.32 19.2902 130.74 17.3702 124.13C16.6402 121.59 16.7802 118.72 17.7802 115.57C17.9602 114.09 18.4202 112.71 19.1202 111.46C15.7302 109.46 13.2402 106.44 11.8202 102.56C10.9602 100.24 10.4802 97.5802 10.4002 94.6602C10.2302 88.9102 11.6702 84.4202 14.6802 81.3202C16.6602 79.2702 19.2302 77.9602 22.1902 77.4402C20.5502 72.7402 21.6502 68.3202 25.4802 64.6802C27.7502 62.5302 30.0702 61.0702 32.4102 60.3202C32.2002 58.2002 32.7302 56.1102 34.0002 54.1802C35.5002 51.9302 37.5202 50.4802 39.9302 49.9102C35.9002 42.4602 34.7502 32.2402 41.8502 25.3502C45.9402 21.3802 52.7302 18.9102 59.5802 18.9102C67.9202 18.9102 87.7302 22.7602 96.2502 57.4502C97.7402 56.9602 99.3802 56.7202 101.16 56.7202C101.31 56.7202 101.47 56.7202 101.63 56.7202C103.58 56.7702 105.6 57.3202 107.57 58.3402C115.81 50.8602 126.12 41.5102 127.48 40.3502C128.82 39.2202 131.45 37.3502 134.22 37.3502C135.01 37.3502 135.77 37.5002 136.47 37.7902C137.44 38.1902 139.79 39.5602 140.06 43.4202C140.22 45.6402 139.68 47.7002 138.5 49.4302C141.4 53.1602 142.13 57.3502 140.47 61.2702C138.73 65.3902 135.3 68.1102 131.31 68.5502C131.15 68.5702 130.97 68.5902 130.8 68.6002L120.73 80.5802C120.89 83.1502 120.67 85.6802 120.1 88.1002C120.21 88.1002 120.32 88.1002 120.43 88.1002C123.86 88.1002 127.15 89.7802 130.21 93.0901L130.32 93.2102L130.41 93.3401C134.27 97.7201 135.1 103.98 132.57 109.7C130.71 113.91 124.31 123.52 104.49 124.32L103.15 128.72C100.34 137.89 97.6902 146.56 97.3202 147.8C97.1602 148.35 97.6502 149.94 98.3502 151.16H131.36C133.54 151.16 135.31 152.93 135.31 155.1C135.31 157.27 133.54 159.05 131.36 159.05H18.9902V159.03Z" fill="white"/>
<path id="Vector_2" d="M59.6002 21.9084C72.1702 21.9084 87.7502 30.8784 94.2002 61.9084C95.8002 60.6184 98.0202 59.7184 101.17 59.7184C101.3 59.7184 101.43 59.7184 101.57 59.7184C103.7 59.7684 105.89 60.6184 107.94 62.0584C115.93 54.8084 128.02 43.8384 129.44 42.6184C130.14 42.0184 132.29 40.3384 134.22 40.3384C134.59 40.3384 134.96 40.3984 135.31 40.5484C136.04 40.8484 136.93 41.6284 137.07 43.6184C137.29 46.6484 135.63 48.4784 134.41 49.3984C136.28 51.1284 139.78 55.2084 137.71 60.0884C136.4 63.1884 133.88 65.2384 130.98 65.5584C130.72 65.5884 130.47 65.6084 130.21 65.6084C129.8 65.6084 129.4 65.5684 129.01 65.4984C129.06 65.7684 129 66.0584 128.81 66.2884L117.63 79.5784C118.12 84.1084 117.39 88.8884 114.84 93.2884C116.25 92.1384 118.16 91.0784 120.42 91.0784C122.65 91.0784 125.23 92.1084 128 95.1084C128.03 95.1484 128.06 95.1884 128.09 95.2284C135.43 103.408 129.66 121.158 102.25 121.358C98.8802 132.378 94.9002 145.378 94.4402 146.928C93.7702 149.148 95.5402 152.728 96.8202 154.138H131.36C131.89 154.138 132.31 154.558 132.31 155.078C132.31 155.598 131.89 156.028 131.36 156.028H18.9902C18.4602 156.028 18.0402 155.608 18.0402 155.078C18.0402 154.548 18.4602 154.138 18.9902 154.138H48.9902C49.1202 152.978 49.9202 145.868 50.7202 137.548C50.4702 137.598 50.2202 137.628 50.0002 137.628C49.5002 137.628 49.0902 137.518 48.7702 137.378C47.3902 136.788 46.6302 135.318 46.2702 134.358C42.7202 135.018 39.6602 135.318 37.0302 135.318C25.6002 135.318 22.1202 129.668 20.2602 123.288C19.6202 121.078 19.9202 118.638 20.7402 116.208C20.9202 114.298 21.7102 112.528 23.1002 111.158L23.6702 110.228C20.1302 109.058 16.5002 106.588 14.6502 101.528C13.9402 99.6084 13.4902 97.3184 13.4102 94.5684C13.0902 83.9284 19.0002 80.1884 25.1602 80.1884C25.8002 80.1884 26.4402 80.2284 27.0802 80.3084C24.2702 76.3184 22.8302 71.3484 27.5602 66.8484C30.8202 63.7584 33.7102 62.7284 36.1402 62.7284C36.1902 62.7284 36.2302 62.7284 36.2802 62.7284C35.1902 60.7084 34.8702 58.3284 36.5202 55.8384C38.1402 53.4084 40.2902 52.6284 42.4002 52.6284C43.6902 52.6284 44.9502 52.9184 46.0702 53.3084C40.8002 47.8684 36.0102 35.2184 43.9602 27.4984C47.1302 24.4184 52.9402 21.9084 59.6002 21.9084ZM59.6002 15.9084C52.0002 15.9084 44.4102 18.6984 39.7802 23.1984C32.5002 30.2684 32.6202 40.2584 35.9102 48.3284C34.2002 49.3184 32.7202 50.7284 31.5302 52.5084C30.3102 54.3484 29.6102 56.2984 29.4102 58.2884C27.3702 59.2484 25.3702 60.6584 23.4302 62.4984C19.6102 66.1284 18.0002 70.6184 18.6402 75.3084C16.3102 76.1584 14.2302 77.4784 12.5302 79.2284C8.93016 82.9384 7.21016 88.1584 7.41016 94.7484C7.50016 97.9984 8.05016 100.978 9.02016 103.608C10.3602 107.268 12.5202 110.288 15.4002 112.548C15.1502 113.308 14.9702 114.108 14.8602 114.918C13.7402 118.538 13.6202 121.918 14.5002 124.958C15.4202 128.118 17.1002 132.718 21.1102 136.218C25.0402 139.648 30.2502 141.318 37.0302 141.318C39.0102 141.318 41.1502 141.168 43.4402 140.878C43.7102 141.148 44.0002 141.398 44.2902 141.628C44.0702 143.778 43.8502 145.968 43.6102 148.138H18.9902C15.1602 148.138 12.0402 151.248 12.0402 155.078C12.0402 158.908 15.1602 162.028 18.9902 162.028H131.36C135.19 162.028 138.31 158.908 138.31 155.078C138.31 151.248 135.19 148.138 131.36 148.138H100.34C101.03 145.838 103.42 138.028 105.94 129.798L106.74 127.178C126.58 125.698 133.29 115.458 135.31 110.888C138.3 104.118 137.31 96.6984 132.75 91.4384L132.62 91.2584L132.41 91.0284C129.67 88.0584 126.72 86.1884 123.59 85.4484C123.73 84.1784 123.79 82.8984 123.77 81.5984L132.33 71.4184C137.12 70.6384 141.17 67.3184 143.24 62.4184C145.07 58.0984 144.59 53.4184 142.02 49.2284C142.85 47.3784 143.22 45.3184 143.06 43.1784C142.67 37.6584 139.11 35.6184 137.6 34.9884C136.58 34.5584 135.43 34.3284 134.23 34.3284C130.69 34.3284 127.57 36.3384 125.57 38.0284C124.3 39.1184 116.34 46.3284 107.02 54.7884C105.26 54.1184 103.48 53.7484 101.72 53.7084C101.54 53.7084 101.36 53.7084 101.18 53.7084C100.24 53.7084 99.3302 53.7684 98.4502 53.8884C89.0502 19.7684 68.4302 15.9084 59.6102 15.8984L59.6002 15.9084Z" fill="white"/>
</g>
<path id="Vector_3" d="M74.64 155.751L49.9 155.361C49.63 155.361 49.38 155.241 49.2 155.041C49.02 154.841 48.94 154.571 48.97 154.311C49.01 153.961 52.97 119.051 52.46 110.041C52.43 109.521 52.83 109.071 53.35 109.041C53.86 109.011 54.32 109.411 54.35 109.931C54.82 118.321 51.64 147.481 50.96 153.491L72.52 153.831L69.84 150.771C69.6 150.491 69.54 150.101 69.69 149.761C73.09 142.021 76.77 105.531 76.8 105.161C76.85 104.641 77.32 104.251 77.84 104.311C78.36 104.361 78.74 104.831 78.69 105.351C78.54 106.831 75.1 140.971 71.66 149.961L75.35 154.181C75.6 154.461 75.65 154.861 75.5 155.201C75.34 155.541 75.01 155.751 74.64 155.751Z" fill="black"/>
<path id="Vector_4" d="M96.2999 155.912H71.3899C70.8699 155.912 70.4399 155.492 70.4399 154.962C70.4399 154.432 70.8599 154.012 71.3899 154.012H94.3799C93.0699 151.932 91.8999 148.802 92.6199 146.382C93.4399 143.642 105.14 105.432 105.26 105.042C105.41 104.542 105.94 104.262 106.44 104.412C106.94 104.562 107.22 105.092 107.07 105.592C106.95 105.982 95.2499 144.192 94.4299 146.922C93.7399 149.232 95.6799 153.002 96.9599 154.282C97.2299 154.552 97.3099 154.962 97.1699 155.312C97.0199 155.662 96.6799 155.902 96.2899 155.902L96.2999 155.912Z" fill="black"/>
<g id="Group_2">
<path id="Vector_5" d="M38.3202 99.6783C38.3202 99.6783 24.4602 112.478 14.6502 101.538C13.9502 99.6183 13.4902 97.3283 13.4102 94.5783C13.0602 82.8383 20.2902 79.4983 27.0802 80.3083C24.2702 76.3283 22.8302 71.3483 27.5602 66.8483C30.8702 63.6983 33.8202 62.6883 36.2702 62.7183C35.1902 60.6983 34.8602 58.3283 36.5202 55.8383C39.1202 51.9183 43.1202 52.2783 46.0702 53.3083C40.8002 47.8683 36.0102 35.2183 43.9502 27.4983C53.1202 18.5983 84.3402 14.4283 94.1902 61.9083C95.8602 60.5683 98.2002 59.6383 101.55 59.7183C111.85 59.9483 123.28 78.6883 114.82 93.2883C117.62 91.0083 122.42 89.0783 127.98 95.1183C128.01 95.1583 128.04 95.1983 128.07 95.2283C128.09 97.8283 127.48 102.128 124.03 106.238C118.61 112.698 107.09 115.008 100.19 112.818C103.64 111.568 106.45 108.958 106.45 108.958C106.45 108.958 102.82 111.428 96.7602 110.708C90.7002 109.998 88.5902 109.118 87.5102 108.318C87.5102 108.318 89.4202 110.768 92.4402 112.298L92.1102 112.278C92.1102 112.278 71.1702 121.808 54.5702 114.058C54.5702 114.058 56.3402 116.798 60.4502 118.978C57.6902 120.688 53.9502 127.058 47.5402 125.528C47.5402 125.528 29.3202 131.808 20.6702 117.198C20.6202 114.518 21.7502 111.998 24.0102 110.358C24.0102 110.358 23.9902 110.358 23.9802 110.358C33.4602 108.758 38.2702 99.6883 38.2702 99.6883L38.3202 99.6783Z" fill="#6C2EEC"/>
<path id="Vector_6" d="M38.3202 99.6797C38.3202 99.6797 33.5002 108.75 24.0302 110.35C20.3802 109.23 16.5702 106.76 14.6602 101.54C24.4702 112.49 38.3302 99.6797 38.3302 99.6797H38.3202Z" fill="#4E16D8"/>
<path id="Vector_7" d="M44.2002 120.017C53.1302 124.777 57.7202 120.687 60.4802 118.977C56.3802 116.807 54.6002 114.057 54.6002 114.057C71.1902 121.807 92.1402 112.277 92.1402 112.277L92.4702 112.297C89.4502 110.777 87.5402 108.317 87.5402 108.317C88.6202 109.117 90.7302 109.987 96.7902 110.707C102.85 111.417 106.48 108.957 106.48 108.957C106.48 108.957 103.67 111.577 100.22 112.817C107.12 114.997 118.64 112.697 124.06 106.237C127.51 102.127 128.11 97.8266 128.1 95.2266C136.78 104.897 127.13 127.957 85.0702 119.567C74.8402 123.237 56.5002 128.737 37.4102 129.217C26.2802 129.377 20.8002 122.927 20.7002 117.187C30.3102 130.837 44.1902 120.017 44.1902 120.017H44.2002Z" fill="#4E16D8"/>
</g>
<path id="Vector_8" d="M50.0001 137.638C49.5101 137.638 49.0901 137.528 48.7701 137.388C47.3901 136.798 46.6301 135.328 46.2701 134.358C27.2801 137.878 22.5401 131.138 20.2701 123.298C17.5701 113.988 31.3501 100.678 31.9301 100.118C32.3101 99.7582 32.9101 99.7682 33.2701 100.148C33.6301 100.528 33.6201 101.128 33.2401 101.488C33.1001 101.618 19.7101 114.558 22.0901 122.768C24.0901 129.678 27.6401 136.098 46.7401 132.338C47.2401 132.238 47.7301 132.558 47.8501 133.048C47.9801 133.588 48.5701 135.228 49.5301 135.638C49.6701 135.698 50.0401 135.858 50.7101 135.578C50.9201 133.368 51.7201 124.688 51.8201 120.078C49.2601 119.848 41.5401 119.318 36.6601 120.718C36.1601 120.858 35.6301 120.568 35.4901 120.068C35.3501 119.568 35.6401 119.038 36.1401 118.898C42.3901 117.108 52.4601 118.238 52.8901 118.278C53.3701 118.328 53.7301 118.738 53.7301 119.218C53.7301 124.178 52.6001 135.788 52.5601 136.278C52.5301 136.578 52.3601 136.848 52.0901 137.008C51.3001 137.468 50.6001 137.628 50.0101 137.628L50.0001 137.638Z" fill="black"/>
<path id="Vector_9" d="M131.36 156.041H18.99C18.47 156.041 18.04 155.621 18.04 155.091C18.04 154.561 18.46 154.141 18.99 154.141H131.37C131.89 154.141 132.32 154.561 132.32 155.091C132.32 155.621 131.9 156.041 131.37 156.041H131.36Z" fill="black"/>
<path id="Vector_10" d="M101.53 70.1202C101.27 70.1202 101.01 70.0202 100.83 69.8102C100.48 69.4202 100.51 68.8202 100.89 68.4702C101.97 67.4902 127.33 44.4302 129.44 42.6302C130.28 41.9202 133.17 39.6602 135.31 40.5602C136.03 40.8602 136.93 41.6402 137.07 43.6302C137.29 46.6602 135.63 48.4902 134.41 49.4102C136.28 51.1402 139.78 55.2202 137.71 60.1002C136.4 63.2002 133.88 65.2502 130.98 65.5802C128.05 65.9102 125.2 64.4702 123.15 61.6202C122.84 61.1902 122.94 60.6002 123.37 60.3002C123.8 59.9902 124.39 60.0902 124.69 60.5202C126.33 62.7902 128.55 63.9602 130.77 63.7002C132.98 63.4502 134.93 61.8302 135.97 59.3702C138.07 54.4002 132.3 50.1202 132.24 50.0702C131.97 49.8702 131.82 49.5402 131.86 49.2002C131.9 48.8602 132.11 48.5702 132.42 48.4302C132.54 48.3802 135.41 47.0502 135.18 43.7702C135.15 43.3102 135.03 42.5102 134.58 42.3202C133.88 42.0302 132.2 42.7802 130.67 44.0902C128.59 45.8702 102.43 69.6502 102.16 69.8902C101.98 70.0602 101.75 70.1402 101.52 70.1402L101.53 70.1202Z" fill="black"/>
<path id="Vector_11" d="M123.08 61.2013C121.48 61.2013 120.22 61.0813 119.91 61.0513C119.39 61.0013 119.01 60.5313 119.06 60.0113C119.11 59.4913 119.58 59.1113 120.1 59.1613C122.13 59.3713 127.81 59.5513 129.77 57.9313C130.13 57.6313 130.31 57.3113 130.34 56.9213C130.39 56.3813 130.24 55.9613 129.89 55.6013C128.57 54.2613 124.95 54.2013 123.66 54.2913C123.15 54.3213 122.68 53.9313 122.65 53.4113C122.62 52.8913 123.01 52.4313 123.53 52.4013C124.09 52.3613 129.07 52.0713 131.24 54.2713C131.98 55.0213 132.32 55.9913 132.23 57.0813C132.15 57.9913 131.73 58.7713 130.98 59.3913C129.17 60.8913 125.68 61.2013 123.08 61.2013Z" fill="black"/>
<path id="Vector_12" d="M127.9 60.7992C127.42 60.7992 127.01 60.4392 126.96 59.9592C126.9 59.4392 127.28 58.9692 127.8 58.9092C130.05 58.6592 131.72 57.8492 132.76 56.4892C134.38 54.3692 133.98 51.6292 133.97 51.5992C133.89 51.0792 134.24 50.5992 134.76 50.5192C135.28 50.4392 135.76 50.7892 135.84 51.3092C135.86 51.4592 136.36 54.8892 134.26 57.6392C132.9 59.4192 130.79 60.4792 128 60.7892C127.96 60.7892 127.93 60.7892 127.89 60.7892L127.9 60.7992Z" fill="black"/>
<path id="Vector_13" d="M106.4 92.4096C106.18 92.4096 105.97 92.3396 105.79 92.1896C105.39 91.8496 105.34 91.2496 105.67 90.8496L127.36 65.0796C127.7 64.6796 128.3 64.6296 128.7 64.9596C129.1 65.2996 129.15 65.8996 128.82 66.2996L107.13 92.0696C106.94 92.2896 106.67 92.4096 106.4 92.4096Z" fill="black"/>
<path id="Vector_14" d="M83.8598 73.411C81.4198 74.121 75.0698 75.711 70.5798 74.601C70.0998 74.481 69.6398 74.841 69.6198 75.331C69.4998 78.431 69.9198 87.571 79.2998 85.101C86.5898 83.181 85.8098 76.741 85.1798 74.171C85.0398 73.581 84.4398 73.241 83.8598 73.411Z" fill="black"/>
<path id="Vector_15" d="M74.1198 79.8985C74.1198 79.8985 78.9098 79.2885 80.1098 81.8785C81.3098 84.4685 76.1198 84.6785 74.1198 82.8885C72.1198 81.0985 74.1198 79.8885 74.1198 79.8885V79.8985Z" fill="#6C2EEC"/>
<path id="Vector_16" d="M82.5299 59.8918C82.3499 58.9218 81.4199 58.2718 80.4499 58.4518C79.4799 58.6318 78.8299 59.5618 79.0099 60.5318L79.8099 64.8918C79.9699 65.7518 80.7199 66.3618 81.5699 66.3618C81.6799 66.3618 81.7799 66.3618 81.8899 66.3318C82.8599 66.1518 83.5099 65.2218 83.3299 64.2518L82.5299 59.8918Z" fill="black"/>
<path id="Vector_17" d="M71.9198 61.6301C71.7398 60.6601 70.8098 60.0101 69.8398 60.1901C69.3698 60.2801 68.9598 60.5401 68.6898 60.9301C68.4198 61.3201 68.3198 61.8001 68.3998 62.2701L69.1998 66.6201C69.3598 67.4801 70.1098 68.0901 70.9598 68.0901C71.0698 68.0901 71.1698 68.0901 71.2798 68.0601C71.7498 67.9701 72.1598 67.7101 72.4298 67.3201C72.6998 66.9301 72.8098 66.4501 72.7198 65.9801L71.9198 61.6201V61.6301Z" fill="black"/>
</g>
</svg>
