<svg width="160" height="175" viewBox="0 0 160 175" fill="none" xmlns="http://www.w3.org/2000/svg">
<g id="sidecharacter2">
<g id="Group">
<path id="Vector" d="M47.6299 37.1284C47.1399 37.1284 46.6499 37.0384 46.1799 36.8484C45.1999 36.4684 44.4199 35.7284 43.9899 34.7484C43.3299 33.2484 42.9699 31.6384 42.9299 29.9584C42.8899 28.3984 43.1999 26.3184 43.8699 23.6084C44.4499 21.3084 44.5099 20.4084 44.5099 20.1284C44.5099 19.6684 44.4399 19.2884 44.2999 18.9684C44.1899 18.7084 44.0999 18.6784 43.9999 18.6384C43.9399 18.6184 43.8799 18.5984 43.8299 18.5984C43.7599 18.5984 43.6699 18.6284 43.5999 18.6584C43.4099 18.7384 43.3999 18.7784 43.3699 18.8884C43.3399 18.9884 43.2699 19.1884 43.4599 19.6184L43.7299 20.2284C44.1599 21.2084 44.1899 22.2784 43.8099 23.2584C43.4299 24.2384 42.7099 25.0184 41.7699 25.4384L37.6099 27.2784C37.1199 27.4984 36.5899 27.6084 36.0599 27.6084C35.5699 27.6084 35.0899 27.5184 34.6199 27.3384C33.6399 26.9584 32.8499 26.2084 32.4299 25.2384L32.1399 24.5984C30.6699 21.2884 30.6399 18.0084 32.0299 14.8384C33.3799 11.7684 35.7899 9.44844 39.1799 7.93844C41.1099 7.07844 43.0299 6.64844 44.8899 6.64844C46.1999 6.64844 47.4799 6.85844 48.7199 7.28844C51.8299 8.34844 54.1399 10.5284 55.5699 13.7684C56.2799 15.3684 56.6599 17.0884 56.6899 18.8884C56.7199 20.5884 56.3599 22.7984 55.5799 25.6484C54.9699 27.8684 54.8799 28.7184 54.8699 28.9784C54.8599 29.3184 54.8999 29.5984 54.9799 29.7984C55.4099 30.7584 55.4599 31.7884 55.1299 32.7684C54.7699 33.8384 54.0099 34.6684 52.9899 35.1184L49.1699 36.8084C48.6799 37.0284 48.1599 37.1384 47.6199 37.1384L47.6299 37.1284Z" fill="white"/>
<path id="Vector_2" d="M44.8898 9.62891C45.8698 9.62891 46.8198 9.78891 47.7498 10.1089C50.0498 10.8889 51.7398 12.5089 52.8298 14.9689C53.3798 16.2089 53.6698 17.5289 53.6898 18.9289C53.7198 20.3289 53.3798 22.2989 52.6798 24.8389C52.1698 26.6989 51.8998 28.0389 51.8598 28.8489C51.8298 29.6589 51.9498 30.3789 52.2298 30.9989C52.3498 31.2789 52.3698 31.5489 52.2798 31.8089C52.1898 32.0689 52.0198 32.2589 51.7698 32.3689L47.9498 34.0589C47.8398 34.1089 47.7298 34.1289 47.6098 34.1289C47.4898 34.1289 47.3798 34.1089 47.2498 34.0589C46.9998 33.9589 46.8198 33.7889 46.7098 33.5389C46.1998 32.3889 45.9298 31.1689 45.8998 29.8889C45.8698 28.5989 46.1498 26.7489 46.7498 24.3289C47.2398 22.4089 47.4798 21.0089 47.4798 20.1289C47.4798 19.2589 47.3298 18.4589 47.0098 17.7489C46.5998 16.8189 45.9398 16.1789 45.0498 15.8289C44.6298 15.6689 44.2198 15.5889 43.7998 15.5889C43.3198 15.5889 42.8398 15.6989 42.3598 15.9089C41.4298 16.3189 40.8098 16.9989 40.4998 17.9289C40.1898 18.8689 40.2498 19.8289 40.6998 20.8189L40.9698 21.4289C41.0798 21.6789 41.0898 21.9289 40.9898 22.1689C40.8898 22.4189 40.7398 22.5889 40.5198 22.6789L36.3698 24.5189C36.2598 24.5689 36.1498 24.5889 36.0298 24.5889C35.9098 24.5889 35.7998 24.5689 35.6698 24.5189C35.4198 24.4189 35.2398 24.2489 35.1398 23.9989L34.8498 23.3489C33.7298 20.8289 33.6998 18.3889 34.7498 16.0089C35.7998 13.6289 37.6698 11.8489 40.3698 10.6489C41.9198 9.95891 43.4198 9.61891 44.8698 9.61891M44.8898 3.62891C42.6098 3.62891 40.2798 4.14891 37.9598 5.17891C33.8598 6.99891 30.9398 9.82891 29.2698 13.6089C27.5398 17.5289 27.5798 21.7389 29.3798 25.7989L29.6698 26.4489C30.4198 28.1489 31.7898 29.4589 33.5298 30.1289C34.3398 30.4389 35.1898 30.5989 36.0398 30.5989C36.9998 30.5989 37.9298 30.3989 38.8198 30.0089L39.9198 29.5189C39.9198 29.6989 39.9198 29.8689 39.9198 30.0389C39.9698 32.0989 40.4098 34.0989 41.2398 35.9689C41.9898 37.6689 43.3598 38.9889 45.1098 39.6589C45.8898 39.9689 46.7498 40.1289 47.6098 40.1289C48.5698 40.1289 49.5098 39.9289 50.3898 39.5389L54.1998 37.8489C55.9898 37.0589 57.3298 35.5889 57.9598 33.7389C58.4898 32.1689 58.4498 30.4889 57.8698 28.9489C57.9098 28.6789 58.0398 27.9289 58.4598 26.4289C59.3298 23.2589 59.7198 20.8389 59.6798 18.8189C59.6398 16.6189 59.1698 14.5089 58.2998 12.5389C56.5398 8.55891 53.5598 5.75891 49.6798 4.42891C48.1298 3.89891 46.5098 3.62891 44.8798 3.62891H44.8898Z" fill="white"/>
</g>
<g id="Group_2">
<path id="Vector_3" d="M23.0398 159.028C20.8598 159.028 19.0898 157.258 19.0898 155.078C19.0898 152.898 20.8598 151.138 23.0398 151.138H54.1598C55.5298 149.978 56.8698 148.418 57.0698 147.718C57.1098 146.978 57.0698 143.498 56.1098 127.558C54.2398 127.658 52.4598 127.698 50.7798 127.698C28.8398 127.698 25.1098 119.468 24.3098 112.288L24.2898 112.128C24.2898 112.128 24.2898 111.898 24.2898 111.818C24.2398 110.978 24.3198 110.198 24.5398 109.488C24.6098 109.208 24.7098 108.918 24.8198 108.608C24.9598 108.238 25.1898 107.668 25.5498 107.048C25.9598 106.348 26.4398 105.728 26.9798 105.188C25.5498 103.848 24.3098 102.458 23.2898 101.048C19.0498 95.1584 18.8498 87.1684 22.7998 81.1684C25.4598 77.1084 29.5598 74.9584 34.6698 74.9584C34.9098 74.9584 35.1598 74.9584 35.3998 74.9684C35.2298 74.3784 35.1098 73.7784 35.0198 73.1584C34.5198 69.4984 35.6398 65.6484 38.0098 62.8684C39.9998 60.5384 42.7398 59.0784 45.8198 58.6784C45.4298 57.1884 45.4098 55.6184 45.7698 54.0684C46.4798 51.0484 48.5098 48.4584 51.1498 46.9684L50.8298 46.2284C50.6698 46.1784 50.5098 46.1184 50.3498 46.0584C48.6398 45.3984 47.3398 44.1584 46.5898 42.4784C45.8298 40.7584 45.7698 38.9384 46.4098 37.2084C47.0798 35.4484 48.3198 34.1284 50.0098 33.3684C50.7998 33.0184 51.6098 32.8184 52.4298 32.7684C52.3498 28.9184 53.2298 25.7184 55.0598 23.2384C57.3998 20.0684 61.1498 18.2084 66.2098 17.6884H66.3098L66.4098 17.6784C66.8998 17.6584 67.3798 17.6484 67.8498 17.6484C82.9498 17.6484 95.0698 26.2184 102.92 42.4284C106.11 49.0284 107.97 55.5784 108.99 60.1784C110.41 59.4084 112.17 58.9084 114.33 58.9084C114.75 58.9084 115.2 58.9284 115.66 58.9684L115.89 58.9884L116.12 59.0484C121.46 60.3884 125.41 63.3184 127.85 67.7784C130.84 73.2484 130.93 80.0584 130.25 85.5484C130.57 85.4984 130.9 85.4684 131.24 85.4684C132.78 85.4684 135.04 86.0984 137.05 89.0784C137.98 90.4784 138.68 91.9284 139.15 93.4184C141.14 99.6984 139.17 104.858 136.34 108.458C136.48 108.598 136.62 108.748 136.75 108.898C138.07 110.498 138.51 112.818 138 115.438C137.2 119.568 133.92 123.028 129.64 124.238C127.08 124.968 124.47 125.548 121.85 125.958C117.63 134.798 112.52 139.538 106.65 140.088C105.8 144.808 105.26 147.158 104.9 148.458C105.3 149.568 105.8 150.578 106.18 151.138H135.43C137.61 151.138 139.38 152.908 139.38 155.078C139.38 157.248 137.61 159.028 135.43 159.028H23.0398Z" fill="white"/>
<path id="Vector_4" d="M67.8398 20.6702C101.76 20.6702 107.13 66.8402 107.13 66.8402C107.13 66.8402 108.33 61.9202 114.31 61.9202C114.65 61.9202 115 61.9402 115.37 61.9702C134.22 66.6802 125.79 92.6702 125.25 94.2802C125.59 93.5802 128.15 88.4702 131.21 88.4702C132.28 88.4702 133.42 89.1002 134.54 90.7602C135.33 91.9502 135.89 93.1402 136.26 94.3202C139.46 104.39 130.17 110.14 129.67 110.44C130.65 110.04 131.49 109.87 132.19 109.87C134.79 109.87 135.53 112.28 135.03 114.87C134.42 118.03 131.9 120.48 128.8 121.36C125.63 122.27 122.62 122.86 119.79 123.22C116.76 130.05 112.04 137.15 105.47 137.15C105.19 137.15 104.91 137.14 104.62 137.11C104.45 137.1 104.29 137.06 104.13 137C103.2 142.41 102.34 146.76 101.73 148.49C102.15 149.89 103.29 152.88 104.67 153.91C104.75 153.98 104.82 154.05 104.88 154.14H135.41C135.93 154.14 136.36 154.56 136.36 155.08C136.36 155.6 135.93 156.03 135.41 156.03H23.0398C22.5198 156.03 22.0898 155.61 22.0898 155.08C22.0898 154.55 22.5198 154.14 23.0398 154.14H55.2598C55.3098 154.08 55.3498 154.02 55.4098 153.98C56.5598 153.11 59.6298 150.39 60.0298 148.2C60.2298 147.09 59.6998 137.04 58.9198 124.38C55.9298 124.6 53.2198 124.71 50.7798 124.71C29.2998 124.71 27.8198 116.75 27.2898 111.97V111.94C27.2898 111.87 27.2898 111.79 27.2898 111.71C27.2498 111.17 27.2898 110.7 27.4298 110.31C27.4798 110.1 27.5498 109.89 27.6298 109.68C27.7698 109.31 27.9298 108.94 28.1498 108.56C29.2198 106.74 30.7798 105.99 32.4498 105.82C30.1098 104.11 27.6198 101.92 25.7298 99.3002C22.2398 94.4502 22.0298 87.8102 25.3098 82.8202C27.7698 79.0702 31.3298 77.9702 34.6698 77.9702C36.6398 77.9702 38.5298 78.3502 40.0698 78.8002C40.8498 79.0302 41.5298 79.2702 42.0898 79.4902C42.5398 79.6702 42.9098 79.8301 43.1798 79.9501C42.9698 79.8401 42.7698 79.7302 42.5798 79.6102C39.8298 77.9902 38.3598 75.4502 37.9998 72.7702C37.2798 67.4902 40.8398 61.7202 47.3298 61.5802C47.4198 61.5802 47.5198 61.5802 47.6098 61.5802C49.2998 61.5802 50.7298 61.9202 51.9098 62.3902C51.8798 62.3602 51.8398 62.3202 51.8098 62.2902C51.4598 62.0002 51.1198 61.6902 50.7698 61.3502C48.6998 59.3102 48.1998 56.9102 48.6998 54.7502C49.4098 51.7102 52.0898 49.1602 55.1698 48.7102L52.9498 43.5402C52.9498 43.5402 52.8998 43.5402 52.8698 43.5402C52.4098 43.5402 51.9298 43.4602 51.4498 43.2702C50.4698 42.8902 49.7598 42.2202 49.3298 41.2602C48.8898 40.2602 48.8598 39.2602 49.2298 38.2602C49.6098 37.2602 50.2798 36.5502 51.2398 36.1202C51.7698 35.8902 52.2898 35.7702 52.8198 35.7702C53.2898 35.7702 53.7598 35.8602 54.2398 36.0402C54.9698 36.3202 55.5398 36.7702 55.9798 37.3602C54.3298 29.1702 55.9498 21.7602 66.5198 20.6902C66.9698 20.6702 67.4098 20.6702 67.8598 20.6702M60.5398 50.3502C59.0698 47.2402 57.6498 43.7502 56.6698 40.2802C56.6298 40.5402 56.5498 40.7902 56.4498 41.0502C56.2598 41.5302 55.9998 41.9402 55.6698 42.2802L58.6098 49.1602C59.2698 49.4402 59.9198 49.8202 60.5398 50.3502ZM67.8398 14.6702C67.3298 14.6702 66.8198 14.6702 66.2998 14.7002H66.0998L65.8998 14.7302C59.9598 15.3302 55.4998 17.6002 52.6398 21.4802C50.8198 23.9402 49.7698 26.9102 49.4898 30.3602C49.2498 30.4402 49.0198 30.5402 48.7898 30.6402C46.3398 31.7402 44.5598 33.6302 43.6098 36.1302V36.1502L43.5898 36.1702C42.6698 38.6402 42.7598 41.2402 43.8298 43.6702C44.4298 45.0002 45.2498 46.1302 46.2798 47.0502C44.6298 48.8102 43.4098 50.9902 42.8498 53.3802C42.6198 54.3802 42.5098 55.3802 42.5098 56.3702C39.8898 57.2302 37.5598 58.7802 35.7298 60.9302C33.0698 64.0402 31.7198 68.0702 31.9098 72.1602C27.0498 72.8502 22.9798 75.4102 20.2798 79.5402C15.6598 86.5602 15.8898 95.9202 20.8498 102.81C21.4998 103.71 22.2198 104.59 23.0098 105.46C22.9998 105.48 22.9798 105.51 22.9698 105.53C22.5898 106.18 22.2898 106.82 22.0098 107.57C21.8598 107.95 21.7398 108.33 21.6498 108.69C21.3498 109.7 21.2298 110.79 21.2898 111.93C21.2898 112 21.2898 112.08 21.2898 112.17V112.28L21.3298 112.64C22.1898 120.4 26.1798 130.71 50.7798 130.71C51.5998 130.71 52.4298 130.7 53.2898 130.68C53.9298 141.64 54.0598 145.55 54.0698 146.94C53.8198 147.27 53.4298 147.71 52.9898 148.14H23.0398C19.2098 148.14 16.0898 151.25 16.0898 155.08C16.0898 158.91 19.2098 162.03 23.0398 162.03H135.42C139.25 162.03 142.37 158.91 142.37 155.08C142.37 151.25 139.25 148.14 135.42 148.14H108.07C108.37 146.93 108.74 145.22 109.21 142.7C114.88 141.29 119.78 136.59 123.84 128.67C126.06 128.27 128.28 127.76 130.46 127.13C135.8 125.61 139.91 121.25 140.93 116.01C141.48 113.18 141.15 110.55 140.01 108.43C142.58 104.34 144.03 98.9202 141.99 92.5002C141.45 90.7602 140.62 89.0502 139.55 87.4402C137.61 84.5702 135.43 83.2902 133.52 82.7702C133.92 76.2902 132.9 70.7702 130.47 66.3402C127.65 61.1902 122.93 57.6602 116.83 56.1402L116.38 56.0302L115.92 55.9902C115.38 55.9402 114.85 55.9202 114.32 55.9202C113.21 55.9202 112.14 56.0302 111.11 56.2502C109.96 51.8802 108.22 46.5202 105.61 41.1302C97.2299 23.8102 84.1698 14.6602 67.8398 14.6602V14.6702Z" fill="white"/>
</g>
<path id="Vector_5" d="M104.1 155.619C104.1 155.619 104.09 155.619 104.08 155.619L78.8198 155.099C78.2998 155.089 77.8798 154.659 77.8898 154.129C77.8998 153.609 78.3498 153.159 78.8598 153.199L101.98 153.669C100.67 151.669 99.9198 149.079 99.8198 148.699C99.7598 148.489 99.7798 148.279 99.8598 148.079C101.46 144.279 105.77 114.879 107.83 99.8695C107.9 99.3495 108.38 98.9895 108.9 99.0595C109.42 99.1295 109.78 99.6095 109.71 100.129C109.47 101.879 103.93 142.239 101.74 148.489C102.17 149.879 103.3 152.879 104.68 153.909C105.01 154.159 105.14 154.589 105.01 154.979C104.88 155.359 104.52 155.619 104.11 155.619H104.1Z" fill="black"/>
<path id="Vector_6" d="M55.9799 155.691C55.5799 155.691 55.2199 155.431 55.0799 155.051C54.9399 154.661 55.0799 154.231 55.4099 153.981C56.5599 153.121 59.6299 150.391 60.0299 148.201C60.4199 146.051 58.0799 110.581 56.4199 87.2706C56.3799 86.7506 56.7799 86.2906 57.2999 86.2606C57.8199 86.2206 58.2799 86.6206 58.3099 87.1406C58.7399 93.1006 62.4499 145.471 61.8999 148.551C61.5499 150.461 59.9399 152.391 58.5799 153.741L77.8999 153.271L85.6899 114.601C85.7899 114.091 86.2899 113.751 86.8099 113.861C87.3199 113.961 87.6599 114.461 87.5499 114.981L79.6099 154.391C79.5199 154.821 79.1499 155.141 78.6999 155.151L55.9999 155.701H55.9799V155.691Z" fill="black"/>
<path id="Vector_7" d="M105.47 137.149C105.19 137.149 104.91 137.139 104.63 137.109C103.68 137.039 103.08 136.319 103.16 135.329C103.3 133.489 106.34 129.339 108.22 129.479C108.74 129.519 109.13 129.969 109.1 130.499C109.06 131.019 108.61 131.419 108.08 131.379C107.37 131.579 105.37 134.169 105.09 135.249C116.22 135.789 122.05 110.599 122.11 110.339C122.23 109.829 122.73 109.509 123.24 109.619C123.75 109.729 124.07 110.239 123.96 110.749C123.71 111.849 117.9 137.149 105.48 137.149H105.47Z" fill="black"/>
<path id="Vector_8" d="M107.88 130.999C107.48 130.999 107.14 130.889 106.84 130.669C105.85 129.939 106.06 128.439 106.58 127.289C107.24 125.829 109.87 117.229 110.83 114.039C110.98 113.539 111.51 113.249 112.01 113.399C112.51 113.549 112.8 114.079 112.65 114.579C112.51 115.049 109.16 126.199 108.31 128.079C108.12 128.509 108.05 128.869 108.04 129.079C108.4 128.999 109.41 128.599 111.54 126.729C111.93 126.379 112.53 126.419 112.88 126.819C113.23 127.209 113.19 127.809 112.79 128.159C110.6 130.089 109.02 131.009 107.88 131.009V130.999Z" fill="black"/>
<path id="Vector_9" d="M81.4502 107.91C80.8702 107.91 80.3102 107.57 80.0702 107L51.5802 40.37C51.2502 39.61 51.6102 38.73 52.3702 38.4C53.1302 38.07 54.0102 38.43 54.3402 39.19L82.8302 105.82C83.1602 106.58 82.8002 107.46 82.0402 107.79C81.8502 107.87 81.6502 107.91 81.4502 107.91Z" fill="#F68D1E"/>
<path id="Vector_10" d="M40.5399 22.69L36.3899 24.53C36.1699 24.63 35.9399 24.63 35.6899 24.53C35.4399 24.43 35.2699 24.26 35.1599 24.01L34.8699 23.36C33.7499 20.84 33.7199 18.4 34.7699 16.02C35.8199 13.64 37.6899 11.86 40.3899 10.66C42.9999 9.50997 45.4499 9.31997 47.7499 10.1C50.0499 10.88 51.7399 12.5 52.8299 14.96C53.3799 16.2 53.6698 17.52 53.6898 18.92C53.7099 20.32 53.3799 22.29 52.6799 24.83C52.1699 26.69 51.8999 28.03 51.8599 28.84C51.8299 29.65 51.9499 30.37 52.2299 30.99C52.3499 31.27 52.3699 31.54 52.2799 31.8C52.1898 32.06 52.0199 32.25 51.7699 32.36L47.9499 34.05C47.7299 34.15 47.4999 34.15 47.2499 34.05C46.9999 33.96 46.8198 33.78 46.7099 33.53C46.1999 32.38 45.9299 31.16 45.8999 29.88C45.8699 28.59 46.1499 26.74 46.7499 24.32C47.2399 22.4 47.4799 21 47.4799 20.12C47.4799 19.24 47.3298 18.45 47.0098 17.74C46.5998 16.81 45.9399 16.17 45.0499 15.82C44.1499 15.48 43.2498 15.5 42.3498 15.9C41.4198 16.31 40.7999 16.99 40.4899 17.92C40.1799 18.86 40.2399 19.82 40.6899 20.81L40.9599 21.42C41.0699 21.67 41.0799 21.92 40.9799 22.16C40.8799 22.41 40.7298 22.58 40.5099 22.67L40.5399 22.69ZM51.2299 36.12C52.2199 35.68 53.2199 35.65 54.2299 36.04C55.2399 36.43 55.9599 37.12 56.3999 38.11C56.8299 39.07 56.8398 40.05 56.4398 41.04C56.0399 42.03 55.3499 42.75 54.3599 43.19C53.3999 43.62 52.4198 43.64 51.4398 43.26C50.4499 42.88 49.7499 42.21 49.3199 41.24C48.8799 40.25 48.8499 39.25 49.2199 38.25C49.5899 37.25 50.2599 36.53 51.2299 36.11V36.12Z" fill="#F68D1E"/>
<path id="Vector_11" d="M135.42 156.041H23.0398C22.5198 156.041 22.0898 155.621 22.0898 155.091C22.0898 154.561 22.5098 154.141 23.0398 154.141H135.42C135.94 154.141 136.37 154.561 136.37 155.091C136.37 155.621 135.95 156.041 135.42 156.041Z" fill="black"/>
<path id="Vector_12" d="M129.65 110.451C134.3 108.571 135.67 111.581 135.03 114.871C134.39 118.161 131.9 120.481 128.8 121.361C106.92 127.621 92.7702 119.041 92.7702 119.041C30.7602 132.381 28.0402 118.861 27.2802 111.961V111.941C27.2802 111.861 27.2802 111.791 27.2702 111.711C27.2402 111.171 27.2802 110.701 27.4102 110.311C27.4602 110.101 27.5402 109.891 27.6202 109.681L28.1602 110.781C30.8902 116.341 39.1802 117.591 52.6802 116.371C53.7502 116.271 54.8002 116.111 55.8502 115.891C53.3902 113.791 51.9302 110.851 51.9302 110.851L52.3802 111.241C55.2302 113.671 58.6602 115.391 62.3602 115.941C68.0602 116.791 72.4002 117.941 81.7802 113.291C77.9002 111.441 76.3202 108.571 76.2402 108.421L74.5002 105.181L77.6402 107.091C77.6402 107.091 82.5402 110.061 87.8302 109.961C93.0502 109.881 95.4402 108.421 95.4602 108.411L97.7302 106.941L96.9502 109.531C96.9302 109.611 96.4602 111.121 94.9502 112.511C98.4402 113.861 104.13 115.231 106.7 115.741C126.33 118.721 135.59 95.5809 135.68 95.3409L136.12 94.2109L136.24 94.2909C139.53 104.641 129.62 110.421 129.62 110.421L129.65 110.451Z" fill="#4E16D8"/>
<g id="Group_3">
<g id="Group_4">
<path id="Vector_13" d="M25.7201 99.3015C22.2301 94.4515 22.0201 87.8215 25.3001 82.8215C29.2101 76.8515 35.9201 77.6015 40.0601 78.8015C40.7501 79.0815 41.4301 79.3115 42.0901 79.4915C42.5401 79.6715 42.9101 79.8215 43.1801 79.9515C42.9701 79.8415 42.7701 79.7315 42.5801 79.6115C50.4601 81.5515 55.2201 77.0515 55.2201 77.0515C47.1901 80.4715 41.4701 76.7015 38.0001 72.7715C37.2801 67.4915 40.8401 61.7215 47.3301 61.5815C49.1401 61.5415 50.6601 61.8915 51.9101 62.3915C51.8801 62.3615 51.8401 62.3215 51.8101 62.3015C56.8601 64.3415 61.2601 61.5515 61.2601 61.5515C53.2001 62.9015 49.8901 57.6315 48.7001 54.7615C49.8101 49.9815 55.8301 46.3615 60.5501 50.3615C55.1501 38.9315 50.2901 22.3315 66.5201 20.6915C101.63 19.4615 107.15 66.8415 107.15 66.8415C107.15 66.8415 108.49 61.3615 115.39 61.9715C134.84 66.8315 125.24 94.3715 125.24 94.3715C125.24 94.3715 129.99 84.0215 134.56 90.7615C135.35 91.9515 135.9 93.1415 136.28 94.3215L136.16 94.2415L135.72 95.3715C135.63 95.6015 126.36 118.742 106.74 115.772C104.18 115.252 98.4901 113.892 94.9901 112.542C96.4901 111.162 96.9601 109.642 96.9901 109.562L97.7701 106.972L95.5001 108.442C95.5001 108.442 93.0901 109.912 87.8701 109.992C82.5901 110.092 77.7301 107.142 77.6801 107.122L74.5401 105.212L76.2801 108.452C76.3601 108.592 77.9401 111.472 81.8201 113.322C71.7801 120.192 68.1001 116.822 62.4001 115.972C58.7001 115.422 55.2701 113.702 52.4201 111.272L51.9701 110.882C51.9701 110.882 53.4301 113.812 55.8901 115.922C54.8401 116.142 53.7801 116.302 52.7201 116.402C39.2101 117.622 30.9201 116.372 28.2001 110.812L27.6601 109.712C27.7901 109.352 27.9501 108.982 28.1801 108.602C29.2501 106.782 30.8101 106.022 32.4801 105.862C30.1401 104.152 27.6501 101.962 25.7601 99.3415L25.7201 99.3015Z" fill="#6C2EEC"/>
<path id="Vector_14" d="M61.2399 61.5517C61.2399 61.5517 56.8399 64.3417 51.7899 62.3017C51.4499 62.0017 51.0999 61.6917 50.7499 61.3517C48.6799 59.3117 48.1799 56.9117 48.6799 54.7617C49.8699 57.6417 53.1799 62.9117 61.2399 61.5517Z" fill="#4E16D8"/>
</g>
<path id="Vector_15" d="M40.0503 78.8008C40.8303 79.0308 41.5203 79.2708 42.0803 79.4908C41.4303 79.3108 40.7503 79.0808 40.0503 78.8008Z" fill="#4E16D8"/>
<path id="Vector_16" d="M55.2 77.0534C55.2 77.0534 50.44 81.5534 42.56 79.6134C39.81 77.9934 38.35 75.4534 37.98 72.7734C41.44 76.6934 47.17 80.4634 55.2 77.0534Z" fill="#4E16D8"/>
</g>
<path id="Vector_17" d="M82.7902 75.9505C82.6902 75.9505 82.5902 75.9305 82.4902 75.9005C82.4302 75.8805 81.7802 75.6505 78.6502 74.2805C78.1702 74.0705 77.9502 73.5105 78.1602 73.0305C78.3702 72.5505 78.9302 72.3305 79.4102 72.5405C82.4402 73.8705 83.0702 74.0905 83.1002 74.1005C83.5902 74.2705 83.8602 74.8105 83.6902 75.3005C83.5602 75.6905 83.1902 75.9405 82.7902 75.9405V75.9505Z" fill="black"/>
<path id="Vector_18" d="M54.51 101.01C54.29 101.01 54.06 100.93 53.88 100.77C53.49 100.42 53.45 99.8302 53.79 99.4302C58.78 93.7502 66.95 84.1102 67.62 82.4102C68.29 80.7002 68.16 79.2602 67.98 77.4402C67.93 76.8902 67.87 76.3202 67.84 75.7202C67.72 73.6602 67.95 71.7302 70.36 71.5202C71.23 71.4302 72.47 71.9402 76.98 78.7502C78.79 79.2102 86.97 81.2602 89.28 81.5602C90.84 81.7602 92.9 83.0702 92.73 84.7502C92.52 86.8902 89.14 87.7002 82.4 87.2102C81.88 87.1702 81.48 86.7202 81.52 86.2002C81.56 85.6802 82.01 85.2902 82.53 85.3202C90.05 85.8602 90.83 84.5602 90.84 84.5402C90.82 84.2802 89.94 83.5502 89.03 83.4302C86.33 83.0802 76.56 80.5902 76.15 80.4902C75.92 80.4302 75.72 80.2902 75.59 80.0902C71.94 74.5602 70.7 73.5802 70.39 73.4102C69.91 73.4602 69.61 73.6402 69.72 75.6002C69.75 76.1702 69.8 76.7102 69.86 77.2402C70.04 79.1502 70.22 80.9502 69.38 83.0902C68.37 85.6502 56.55 99.1302 55.21 100.66C55.02 100.87 54.76 100.98 54.5 100.98L54.51 101.01Z" fill="black"/>
<path id="Vector_19" d="M82.5801 91.2583C82.0701 91.2583 81.6401 90.8483 81.6301 90.3283C81.6201 89.8083 82.0301 89.3683 82.5601 89.3583C84.4901 89.3183 85.8001 88.8983 86.3401 88.1383C86.8101 87.4783 86.5701 86.6983 86.5601 86.6583C86.4001 86.1683 86.6701 85.6283 87.1601 85.4583C87.6501 85.2983 88.1801 85.5483 88.3601 86.0383C88.5801 86.6583 88.7301 88.0283 87.9201 89.1983C87.0201 90.5083 85.2301 91.1983 82.6101 91.2483C82.6101 91.2483 82.6001 91.2483 82.5901 91.2483L82.5801 91.2583Z" fill="black"/>
<path id="Vector_20" d="M55.3698 116.972C50.3898 116.972 45.8998 113.852 41.9998 107.682C41.7198 107.242 41.8498 106.652 42.2998 106.372C42.7398 106.092 43.3298 106.222 43.6098 106.672C47.3998 112.682 51.7098 115.492 56.3998 115.032C61.7598 114.502 66.7798 109.832 70.0498 106.012C73.7698 101.662 76.2098 97.2919 76.4198 96.7319C77.1598 94.7819 78.6198 94.1019 79.3698 94.0119C79.4198 94.0119 79.4798 94.0119 79.5298 94.0119C81.5898 94.1019 83.1598 93.6419 84.1798 92.6419C85.5298 91.3119 85.4998 89.4119 85.4998 89.3919C85.4898 88.8719 85.8998 88.4319 86.4198 88.4219C86.9698 88.4219 87.3798 88.8119 87.3898 89.3319C87.3898 89.4419 87.4598 92.0519 85.5198 93.9719C84.1398 95.3419 82.1198 96.0019 79.5598 95.9119C79.3698 95.9619 78.6398 96.2419 78.1898 97.4119C77.5198 99.1719 67.9098 115.802 56.5798 116.932C56.1698 116.972 55.7698 116.992 55.3598 116.992L55.3698 116.972Z" fill="black"/>
<path id="Vector_21" d="M91.15 58.469C90.85 58.469 90.55 58.329 90.37 58.059C90.07 57.629 90.18 57.039 90.61 56.739L96.24 52.849C96.67 52.549 97.26 52.659 97.56 53.089C97.86 53.519 97.75 54.109 97.32 54.409L91.69 58.299C91.53 58.409 91.34 58.469 91.15 58.469Z" fill="black"/>
<path id="Vector_22" d="M83.38 59.2413C83.21 59.2413 83.04 59.1913 82.88 59.1013L77.24 55.6013C76.8 55.3213 76.66 54.7413 76.93 54.2913C77.21 53.8513 77.79 53.7113 78.24 53.9813L83.88 57.4813C84.32 57.7613 84.46 58.3413 84.19 58.7913C84.01 59.0813 83.7 59.2413 83.38 59.2413Z" fill="black"/>
<path id="Vector_23" d="M82.84 61.5309C82.73 60.5509 81.84 59.8509 80.86 59.9509C80.39 60.0009 79.96 60.2409 79.66 60.6109C79.36 60.9809 79.23 61.4509 79.28 61.9309L79.77 66.3309C79.87 67.2409 80.65 67.9209 81.55 67.9209C81.62 67.9209 81.68 67.9209 81.75 67.9109C82.22 67.8609 82.65 67.6209 82.95 67.2509C83.25 66.8809 83.38 66.4109 83.33 65.9309L82.84 61.5309Z" fill="black"/>
<path id="Vector_24" d="M95.2199 61.8083C95.1099 60.8283 94.2199 60.1283 93.2399 60.2283C92.7699 60.2783 92.3399 60.5183 92.0399 60.8883C91.7399 61.2583 91.6099 61.7283 91.6599 62.2083L92.1499 66.6083C92.2499 67.5183 93.0299 68.1983 93.9299 68.1983C93.9999 68.1983 94.0599 68.1983 94.1299 68.1883C95.1099 68.0783 95.8199 67.1883 95.7099 66.2083L95.2199 61.8083Z" fill="black"/>
</g>
</svg>
