<svg width="160" height="175" viewBox="0 0 160 175" fill="none" xmlns="http://www.w3.org/2000/svg">
<g id="sidecharacter3">
<g id="Group">
<path id="Vector" d="M121.91 41.7106C121.63 41.7106 121.35 41.6806 121.08 41.6206L117 40.7506C115.99 40.5406 115.11 39.9206 114.54 39.0306C113.97 38.1606 113.78 37.0906 114 36.0506C114.34 34.4506 115 32.9306 115.95 31.5506C116.83 30.2606 118.3 28.7606 120.44 26.9606C122.26 25.4406 122.84 24.7506 123.01 24.5206C123.28 24.1506 123.44 23.8006 123.52 23.4506C123.58 23.1706 123.52 23.0906 123.47 23.0006C123.4 22.8906 123.34 22.8306 123.14 22.7906C123.06 22.7706 123.01 22.7706 122.98 22.7706C122.94 22.7706 122.91 22.7706 122.82 22.8406C122.73 22.9006 122.56 23.0306 122.46 23.4906L122.32 24.1406C122.09 25.1806 121.49 26.0706 120.61 26.6406C119.95 27.0706 119.21 27.2906 118.47 27.2906C118.21 27.2906 117.94 27.2606 117.68 27.2106L113.23 26.2606C112.22 26.0506 111.35 25.4406 110.77 24.5406C110.2 23.6606 110 22.5906 110.23 21.5506L110.38 20.8606C111.14 17.3206 113.03 14.6406 116.02 12.8906C118 11.7306 120.2 11.1406 122.56 11.1406C123.62 11.1406 124.74 11.2606 125.86 11.5006C129.4 12.2606 132.13 13.9606 133.97 16.5706C135.87 19.2606 136.45 22.3806 135.71 25.8406C135.34 27.5506 134.64 29.1706 133.61 30.6406C132.63 32.0406 131.04 33.6206 128.74 35.4606C126.95 36.9006 126.37 37.5306 126.21 37.7406C126 38.0106 125.87 38.2606 125.82 38.4706C125.6 39.5006 125.04 40.3606 124.2 40.9706C123.51 41.4606 122.73 41.7106 121.92 41.7106H121.91Z" fill="white"/>
<path id="Vector_2" d="M122.54 14.1289C123.4 14.1289 124.29 14.2289 125.21 14.4289C128 15.0289 130.1 16.3189 131.5 18.2989C132.9 20.2789 133.32 22.5889 132.76 25.2089C132.48 26.5389 131.93 27.7789 131.13 28.9289C130.33 30.0789 128.9 31.4789 126.85 33.1189C125.34 34.3289 124.34 35.2489 123.84 35.8889C123.34 36.5289 123.02 37.1789 122.88 37.8489C122.82 38.1489 122.67 38.3789 122.45 38.5389C122.28 38.6589 122.1 38.7189 121.92 38.7189C121.85 38.7189 121.79 38.7189 121.72 38.6989L117.63 37.8289C117.4 37.7789 117.21 37.6489 117.07 37.4189C116.93 37.1989 116.88 36.9489 116.94 36.6889C117.2 35.4589 117.7 34.3189 118.43 33.2589C119.16 32.1989 120.48 30.8689 122.38 29.2589C123.9 27.9889 124.92 26.9989 125.44 26.2889C125.95 25.5789 126.29 24.8489 126.46 24.0789C126.67 23.0789 126.52 22.1789 125.99 21.3789C125.47 20.5689 124.72 20.0689 123.76 19.8589C123.49 19.7989 123.23 19.7689 122.98 19.7689C122.29 19.7689 121.65 19.9789 121.07 20.3989C120.27 20.9789 119.76 21.7989 119.53 22.8589L119.39 23.5089C119.33 23.7789 119.19 23.9789 118.97 24.1189C118.8 24.2289 118.64 24.2789 118.46 24.2789C118.4 24.2789 118.34 24.2789 118.28 24.2589L113.84 23.3089C113.61 23.2589 113.42 23.1189 113.28 22.8989C113.14 22.6789 113.09 22.4389 113.15 22.1689L113.3 21.4689C113.87 18.7789 115.28 16.7789 117.52 15.4689C119.04 14.5789 120.72 14.1289 122.54 14.1289ZM122.54 8.12891C119.65 8.12891 116.94 8.85891 114.49 10.2889C110.79 12.4489 108.35 15.8789 107.43 20.2189L107.28 20.9189C106.89 22.7289 107.23 24.5989 108.25 26.1689C109.26 27.7289 110.8 28.7989 112.6 29.1789L113.78 29.4289C113.68 29.5689 113.58 29.7089 113.48 29.8489C112.31 31.5489 111.49 33.4289 111.07 35.4289C110.68 37.2489 111.02 39.1189 112.04 40.6889C113.03 42.2289 114.58 43.3089 116.39 43.6889L120.46 44.5589C120.94 44.6589 121.43 44.7089 121.92 44.7089C123.35 44.7089 124.74 44.2689 125.92 43.4289C127.27 42.4589 128.22 41.0889 128.65 39.4989C128.84 39.2989 129.39 38.7789 130.61 37.7989C133.18 35.7389 134.91 34.0089 136.07 32.3489C137.33 30.5489 138.19 28.5589 138.64 26.4589C139.55 22.2089 138.78 18.1889 136.41 14.8389C134.12 11.5889 130.78 9.47891 126.48 8.55891C125.15 8.27891 123.83 8.12891 122.55 8.12891H122.54Z" fill="white"/>
</g>
<g id="Group_2">
<path id="Vector_3" d="M20.6204 159.032C18.4404 159.032 16.6704 157.262 16.6704 155.082C16.6704 152.902 18.4404 151.142 20.6204 151.142H47.6104C47.7904 150.712 48.0304 150.302 48.3204 149.922L51.0004 146.462V128.952C45.3204 128.682 39.4604 127.702 33.5404 126.032C20.4104 122.332 19.1404 112.752 19.5504 107.372C19.8004 104.172 20.9804 101.172 22.9704 98.6922C25.1504 95.9822 28.1704 94.1022 31.4604 93.3922C32.4504 93.1822 33.4604 93.0722 34.4504 93.0722C34.5504 93.0722 34.6404 93.0722 34.7404 93.0722C33.6604 87.1622 32.7304 76.9122 37.1604 69.4322C39.7804 65.0122 43.8304 62.1822 49.2104 61.0322L49.4404 60.9822H49.6804C50.0604 60.9522 50.4304 60.9422 50.7804 60.9422C53.3604 60.9422 55.4004 61.4222 56.9904 62.0822C59.4804 51.1422 68.2604 25.4922 95.7904 25.4922C96.4404 25.4922 97.1104 25.5022 97.7804 25.5322C99.0504 25.6022 100.15 25.7522 101.16 25.9922C106.61 27.2822 110.33 29.9922 112.21 34.0422C113.05 35.8522 113.49 37.9022 113.54 40.1922C113.83 39.9222 114.15 39.6622 114.49 39.4422C115.64 38.6822 116.89 38.2922 118.21 38.2922C118.69 38.2922 119.17 38.3422 119.65 38.4522C121.49 38.8522 122.99 39.8822 124.01 41.4422C125.04 43.0322 125.37 44.8422 124.97 46.6822C124.58 48.5022 123.53 49.9922 121.94 50.9922C121.82 51.0722 121.7 51.1422 121.57 51.2122L119.94 58.4222C120.39 60.0722 120.33 61.7922 119.8 63.4422C124.97 64.3622 128.99 68.3722 130 73.8022C130.44 76.1822 130.27 78.5122 129.56 80.6122C129.58 80.6122 129.61 80.6122 129.63 80.6122C135.43 80.6122 139.86 83.2422 142.44 88.2322C145.69 94.5022 145.01 102.192 140.71 107.812C139.63 109.232 138.32 110.612 136.81 111.942C137.36 112.532 137.84 113.202 138.24 113.972C138.33 114.132 138.41 114.312 138.49 114.512C138.66 114.872 138.8 115.232 138.92 115.622C139.02 115.922 139.11 116.232 139.17 116.522C139.35 117.242 139.4 118.052 139.32 118.912L139.3 119.062V119.102L139.27 119.362C138.25 126.242 134.61 134.142 115.27 134.142C110.78 134.142 105.53 133.712 99.6304 132.872V151.142H132.97C135.15 151.142 136.92 152.912 136.92 155.082C136.92 157.252 135.15 159.032 132.97 159.032H20.6204ZM111.25 51.5322C111.59 51.5522 111.94 51.5922 112.27 51.6422L112.79 49.3522C112.69 49.2222 112.59 49.0822 112.5 48.9322C112.42 48.8022 112.33 48.6722 112.26 48.5322C111.97 49.5022 111.63 50.4922 111.25 51.5222V51.5322Z" fill="white"/>
<path id="Vector_4" d="M95.8002 28.5005C96.4102 28.5005 97.0302 28.5105 97.6602 28.5405C98.6102 28.5905 99.5602 28.7005 100.48 28.9205C114.55 32.2605 111.46 45.2305 105.82 56.3605C107.43 55.0605 109.13 54.5105 110.71 54.5105C112.09 54.5105 113.38 54.9305 114.44 55.6405L116.08 48.4005C115.67 48.1205 115.31 47.7605 115.02 47.3105C114.44 46.4205 114.26 45.4605 114.48 44.4305C114.71 43.3705 115.27 42.5405 116.16 41.9505C116.81 41.5205 117.5 41.3005 118.22 41.3005C118.49 41.3005 118.76 41.3305 119.04 41.3905C120.1 41.6205 120.93 42.1905 121.52 43.0905C122.11 44.0005 122.29 44.9905 122.06 46.0505C121.84 47.0805 121.28 47.8805 120.37 48.4505C119.94 48.7205 119.49 48.9005 119.02 48.9905L116.85 58.5705C117.65 60.5605 117.37 63.0205 115.32 65.2805L115.05 66.5005C115.79 66.3405 116.59 66.2405 117.47 66.2405C117.7 66.2405 117.93 66.2405 118.17 66.2605C123.17 66.5705 126.3 70.2305 127.07 74.3505C127.81 78.3105 126.37 82.7005 122.3 84.9705C122.08 85.0905 121.86 85.2105 121.63 85.3205C122.05 85.1505 122.72 84.8905 123.55 84.6205C123.59 84.6105 123.63 84.6005 123.67 84.5905C125.24 84.1005 127.38 83.6105 129.65 83.6105C133.34 83.6105 137.36 84.9005 139.8 89.6105C142.51 94.8405 141.91 101.33 138.35 105.99C136.36 108.59 133.79 110.72 131.4 112.37C133.07 112.61 134.61 113.45 135.61 115.36C135.67 115.47 135.71 115.57 135.75 115.68C135.89 115.97 136 116.25 136.09 116.53C136.16 116.75 136.23 116.98 136.27 117.19C136.38 117.6 136.41 118.09 136.36 118.64C136.35 118.72 136.34 118.8 136.33 118.88V118.92C135.64 123.59 133.97 131.14 115.3 131.14C110.37 131.14 104.25 130.61 96.6602 129.37V154.14H133C133.52 154.14 133.95 154.56 133.95 155.08C133.95 155.6 133.52 156.03 133 156.03H20.6202C20.1002 156.03 19.6702 155.61 19.6702 155.08C19.6702 154.55 20.1002 154.14 20.6202 154.14H50.3002C50.0402 153.31 50.1802 152.43 50.7102 151.73L53.8402 147.69C53.9402 147.56 54.0002 147.39 54.0002 147.22V126.02C48.5702 126 41.9502 125.28 34.3502 123.14C23.8502 120.18 22.1202 113.08 22.5402 107.6C22.7502 104.91 23.7702 102.49 25.3102 100.57C27.0402 98.4205 29.4302 96.9005 32.0902 96.3305C32.8602 96.1705 33.6502 96.0805 34.4502 96.0805C35.4102 96.0805 36.3902 96.2005 37.3802 96.4705C38.2102 96.6905 38.7002 96.9105 38.7002 96.9105C38.7002 96.9105 30.1302 68.2005 49.8402 63.9705C50.1702 63.9505 50.4802 63.9505 50.7902 63.9505C57.0002 63.9505 59.0902 67.2705 59.0902 67.2705C59.0902 67.2705 63.2702 28.5005 95.8002 28.5105M95.8002 22.5005C80.1302 22.5005 67.7402 30.3105 59.9402 45.0805C57.4502 49.8105 55.8302 54.5205 54.8002 58.3305C53.5702 58.0905 52.2302 57.9505 50.7902 57.9505C50.3802 57.9505 49.9602 57.9605 49.5302 57.9805L49.0502 58.0005L48.5802 58.1005C42.4402 59.4205 37.6002 62.8105 34.5802 67.9105C30.4002 74.9805 30.4402 83.9305 31.2702 90.3705C31.1302 90.4005 30.9802 90.4305 30.8402 90.4605C26.8702 91.3105 23.2402 93.5705 20.6402 96.8105C18.2702 99.7705 16.8602 103.34 16.5602 107.13C15.7402 117.85 21.6302 125.78 32.7202 128.91C37.8802 130.36 42.9902 131.31 48.0002 131.74V145.42L45.9702 148.04L45.9502 148.07L45.9302 148.1C45.9302 148.1 45.9102 148.12 45.9102 148.13H20.6302C16.8002 148.13 13.6802 151.24 13.6802 155.07C13.6802 158.9 16.8002 162.02 20.6302 162.02H133.01C136.84 162.02 139.96 158.9 139.96 155.07C139.96 151.24 136.84 148.13 133.01 148.13H102.67V136.28C107.34 136.85 111.57 137.13 115.31 137.13C137.19 137.13 141.18 127.23 142.28 119.78L142.34 119.34V119.16C142.45 117.98 142.38 116.86 142.13 115.83C142.04 115.4 141.92 115.02 141.82 114.69C141.66 114.2 141.49 113.75 141.29 113.31C141.2 113.09 141.08 112.82 140.92 112.52C140.88 112.45 140.84 112.37 140.8 112.3C141.65 111.42 142.43 110.53 143.13 109.62C148.13 103.07 148.92 94.1305 145.14 86.8305C142.6 81.9305 138.44 78.8505 133.21 77.9005C133.35 76.3805 133.28 74.8105 132.98 73.2305C131.93 67.5905 128.23 63.2005 123.26 61.2805C123.31 60.3205 123.24 59.3505 123.05 58.3905L124.26 53.0405C126.17 51.6205 127.43 49.6505 127.94 47.2805C128.51 44.6605 128.04 42.0705 126.57 39.8005C125.09 37.5505 122.94 36.0705 120.33 35.5005C119.62 35.3505 118.93 35.2705 118.24 35.2705C117.47 35.2705 116.71 35.3605 115.97 35.5505C115.71 34.5805 115.38 33.6605 114.96 32.7705C113.39 29.3805 109.84 24.9505 101.88 23.0605C100.7 22.7805 99.4202 22.6005 97.9902 22.5305H97.9602H97.9302C97.2202 22.5005 96.5102 22.4805 95.8002 22.4805V22.5005Z" fill="white"/>
</g>
<path id="Vector_5" d="M102.27 117.549C102.16 117.549 102.05 117.539 101.94 117.509C101.13 117.329 100.63 116.519 100.81 115.719L116.85 45.0486C117.03 44.2386 117.84 43.7286 118.64 43.9186C119.45 44.0986 119.95 44.9086 119.77 45.7086L103.73 116.379C103.57 117.079 102.95 117.549 102.27 117.549Z" fill="#F68D1E"/>
<path id="Vector_6" d="M118.27 24.2486L113.83 23.2986C113.6 23.2486 113.41 23.1086 113.27 22.8886C113.13 22.6686 113.08 22.4286 113.14 22.1586L113.29 21.4586C113.86 18.7686 115.27 16.7686 117.51 15.4586C119.75 14.1486 122.32 13.7986 125.21 14.4186C128 15.0186 130.1 16.3086 131.5 18.2886C132.9 20.2686 133.32 22.5786 132.76 25.1986C132.48 26.5286 131.93 27.7686 131.13 28.9186C130.33 30.0686 128.9 31.4686 126.85 33.1086C125.34 34.3186 124.34 35.2386 123.84 35.8786C123.34 36.5186 123.02 37.1686 122.88 37.8386C122.82 38.1386 122.67 38.3686 122.45 38.5286C122.22 38.6886 121.98 38.7386 121.71 38.6886L117.62 37.8186C117.39 37.7686 117.2 37.6386 117.06 37.4086C116.92 37.1886 116.87 36.9386 116.93 36.6786C117.19 35.4486 117.69 34.3086 118.42 33.2486C119.15 32.1886 120.47 30.8586 122.37 29.2486C123.89 27.9786 124.91 26.9886 125.43 26.2786C125.95 25.5686 126.28 24.8386 126.45 24.0686C126.66 23.0686 126.51 22.1686 125.98 21.3686C125.46 20.5586 124.71 20.0586 123.75 19.8486C122.75 19.6386 121.86 19.8186 121.05 20.3986C120.25 20.9786 119.74 21.7986 119.51 22.8586L119.37 23.5086C119.31 23.7786 119.17 23.9786 118.95 24.1186C118.73 24.2586 118.5 24.3086 118.27 24.2586V24.2486ZM119.04 41.3986C120.1 41.6286 120.93 42.1886 121.52 43.0986C122.11 44.0086 122.29 44.9886 122.06 46.0486C121.84 47.0786 121.28 47.8786 120.37 48.4486C119.47 49.0186 118.48 49.1886 117.42 48.9686C116.39 48.7486 115.59 48.1986 115.01 47.3086C114.44 46.4186 114.26 45.4586 114.48 44.4286C114.71 43.3686 115.27 42.5386 116.16 41.9486C117.05 41.3586 118.01 41.1686 119.04 41.3886V41.3986Z" fill="#F68D1E"/>
<path id="Vector_7" d="M70.3501 156.041H52.8301C51.8001 156.041 50.8901 155.471 50.4301 154.551C49.9801 153.631 50.0901 152.551 50.7201 151.741L53.8401 147.701C53.9401 147.571 54.0001 147.401 54.0001 147.231V104.641C54.0001 104.121 54.4201 103.691 54.9501 103.691C55.4801 103.691 55.9001 104.111 55.9001 104.641V147.231C55.9001 147.821 55.7001 148.401 55.3401 148.861L52.2201 152.901C51.9501 153.241 52.0701 153.581 52.1401 153.711C52.2001 153.841 52.4001 154.141 52.8301 154.141H70.3501C70.8701 154.141 71.3001 154.561 71.3001 155.091C71.3001 155.621 70.8801 156.041 70.3501 156.041Z" fill="black"/>
<path id="Vector_8" d="M95.72 156.04H70.35C69.3 156.04 68.37 155.45 67.93 154.49C67.49 153.53 67.64 152.44 68.32 151.64L72.29 146.98C72.41 146.84 72.47 146.66 72.47 146.48V102.29C72.47 101.77 72.89 101.34 73.42 101.34C73.95 101.34 74.37 101.76 74.37 102.29V146.48C74.37 147.11 74.14 147.73 73.73 148.21L69.76 152.87C69.47 153.21 69.58 153.56 69.65 153.7C69.71 153.84 69.91 154.15 70.35 154.15H94.77V103.7C94.77 103.18 95.19 102.75 95.72 102.75C96.25 102.75 96.67 103.17 96.67 103.7V155.1C96.67 155.62 96.25 156.05 95.72 156.05V156.04Z" fill="black"/>
<g id="Group_3">
<path id="Vector_9" d="M139.81 89.611C135.87 82.011 127.8 83.311 123.68 84.591C123.64 84.601 123.6 84.611 123.57 84.631C122.73 84.891 122.06 85.151 121.64 85.331C121.87 85.221 122.1 85.101 122.31 84.981C114.63 86.861 106.89 83.971 106.89 83.971C117.28 87.211 123.75 80.011 127.08 74.371C126.31 70.241 123.17 66.581 118.17 66.281C116.36 66.171 114.81 66.471 113.54 66.931C113.93 66.611 114.33 66.271 114.73 65.901C121.67 59.421 112.92 50.671 105.82 56.381C111.47 45.251 114.55 32.281 100.49 28.941C99.5701 28.721 98.6201 28.601 97.6701 28.561C63.4301 27.051 59.1001 67.271 59.1001 67.271C59.1001 67.271 56.8001 63.621 49.8501 63.981C30.1401 68.211 38.7101 96.931 38.7101 96.931C38.7101 96.931 38.2301 96.711 37.4001 96.481C35.5901 95.991 33.7901 95.981 32.1101 96.341C29.8901 98.151 27.0501 101.361 26.1701 106.351C24.7101 114.601 42.3301 125.201 63.3301 117.351C57.4301 115.591 54.9701 111.891 54.9701 111.891C54.9701 111.891 60.0001 115.071 69.5901 115.071C79.1801 115.071 81.7801 113.331 81.7801 113.331C81.7801 113.331 79.4801 116.301 74.5201 117.631C79.0701 119.711 90.0601 123.381 102.67 117.791C102.67 117.791 101.76 120.421 98.4101 122.331C102.47 123.661 109.72 125.501 118.08 125.211C128.26 124.851 133.82 119.611 135.78 115.711C135.73 115.611 135.69 115.501 135.64 115.401C134.64 113.481 133.1 112.641 131.43 112.411C133.83 110.761 136.39 108.621 138.38 106.031C141.95 101.371 142.55 94.881 139.84 89.651L139.81 89.611Z" fill="#6C2EEC"/>
<path id="Vector_10" d="M123.67 84.5898C123.67 84.5898 123.59 84.6098 123.56 84.6298C123.6 84.6198 123.64 84.6098 123.67 84.5898Z" fill="#4E16D8"/>
<path id="Vector_11" d="M106.89 83.9616C106.89 83.9616 114.63 86.8516 122.31 84.9716C126.38 82.6916 127.82 78.3116 127.08 74.3516C123.76 79.9916 117.29 87.2016 106.89 83.9516V83.9616Z" fill="#4E16D8"/>
</g>
<path id="Vector_12" d="M77.8702 101.401C77.7602 101.401 77.6502 101.38 77.5402 101.34C75.2802 100.5 69.9602 98.3505 69.1902 96.4305C69.0202 96.0005 69.0302 95.5505 69.2202 95.1605C70.1602 93.2705 72.7202 93.4705 74.0902 93.8905C74.5902 94.0405 74.8702 94.5705 74.7202 95.0705C74.5702 95.5705 74.0402 95.8505 73.5402 95.7005C73.1202 95.5705 71.5602 95.2605 71.0302 95.8505C71.6102 96.6305 74.8302 98.3105 78.2002 99.5605C78.6902 99.7405 78.9402 100.29 78.7602 100.78C78.6202 101.16 78.2602 101.401 77.8702 101.401Z" fill="black"/>
<path id="Vector_13" d="M106.97 100.748C106.78 100.748 106.58 100.688 106.41 100.568C103.25 98.2684 95.82 92.7784 95.1 91.5584C94.54 90.5984 95.13 89.3484 95.75 88.0284C96.02 87.4584 96.51 86.4184 96.5 86.0284C95.34 85.3484 94.79 85.7084 92.44 87.7984C91.66 88.4984 90.78 89.2784 89.67 90.1584C87.56 91.8284 84.07 92.5784 79.3 92.3884C77.01 92.2984 74.82 91.7384 73.17 91.2584C72.55 91.0784 72.1 91.1484 71.77 92.0684C71.71 92.2484 71.72 92.3784 71.82 92.5384C72.45 93.5884 75.57 94.4584 77.58 94.7384C78.1 94.8084 78.46 95.2884 78.39 95.8084C78.32 96.3284 77.85 96.6884 77.32 96.6184C76.36 96.4884 71.53 95.7084 70.21 93.5184C69.82 92.8684 69.75 92.1484 70 91.4284C70.62 89.6884 72.01 88.9384 73.71 89.4284C75.26 89.8784 77.3 90.3984 79.39 90.4784C82.35 90.5984 86.34 90.3784 88.51 88.6584C89.57 87.8184 90.43 87.0484 91.19 86.3684C93.44 84.3584 95.06 82.9084 97.55 84.4184C99.12 85.3184 98.17 87.3384 97.47 88.8184C97.21 89.3684 96.78 90.2784 96.77 90.6284C97.49 91.5084 102.73 95.5284 107.52 99.0184C107.94 99.3284 108.04 99.9184 107.73 100.338C107.54 100.588 107.26 100.728 106.96 100.728L106.97 100.748Z" fill="black"/>
<path id="Vector_14" d="M78.6002 104.061C78.1302 104.061 77.7202 103.711 77.6602 103.231L76.5602 94.3615C76.5002 93.8415 76.8602 93.3715 77.3802 93.3015C77.9002 93.2315 78.3702 93.6015 78.4402 94.1215L79.5402 102.991C79.6002 103.511 79.2402 103.981 78.7202 104.051C78.6802 104.051 78.6402 104.051 78.6002 104.051V104.061Z" fill="black"/>
<path id="Vector_15" d="M73.7302 82.7502C71.5802 82.7502 70.2302 81.7302 70.1402 81.6702C69.7302 81.3502 69.6502 80.7502 69.9702 80.3402C70.2902 79.9302 70.8802 79.8502 71.2902 80.1702C71.4002 80.2502 73.6502 81.8702 77.0302 79.8302C77.4802 79.5602 78.0602 79.7102 78.3302 80.1502C78.6002 80.6002 78.4502 81.1802 78.0102 81.4502C76.3802 82.4302 74.9302 82.7502 73.7202 82.7502H73.7302Z" fill="black"/>
<path id="Vector_16" d="M71.92 64.082C71.71 64.082 71.51 64.012 71.33 63.872C69.68 62.562 67.2 63.212 67.17 63.212C66.66 63.352 66.14 63.052 66.01 62.552C65.87 62.052 66.17 61.532 66.67 61.392C66.81 61.352 70.09 60.472 72.51 62.392C72.92 62.722 72.99 63.312 72.66 63.722C72.47 63.962 72.2 64.082 71.92 64.082Z" fill="black"/>
<path id="Vector_17" d="M85.42 66.0386C84.94 66.0386 84.53 65.6786 84.48 65.1886C84.32 63.6586 81.21 62.0886 79.72 61.5686C79.23 61.3986 78.97 60.8586 79.14 60.3586C79.31 59.8686 79.85 59.6086 80.35 59.7786C80.93 59.9786 86.05 61.8486 86.37 64.9986C86.42 65.5186 86.04 65.9886 85.52 66.0386C85.49 66.0386 85.46 66.0386 85.42 66.0386Z" fill="black"/>
<path id="Vector_18" d="M25.3201 100.57C23.7801 102.49 22.7501 104.91 22.5501 107.6C22.1301 113.07 23.8601 120.18 34.3701 123.14C56.4101 129.34 70.3301 123.6 70.3301 123.6C132 139.77 135.3 126.01 136.34 118.93V118.91V118.89C136.34 118.81 136.36 118.73 136.36 118.65C136.41 118.1 136.39 117.61 136.27 117.2C136.23 116.98 136.16 116.76 136.09 116.54C136 116.26 135.89 115.98 135.76 115.69C133.8 119.59 128.24 124.84 118.06 125.19C109.7 125.48 102.45 123.64 98.3901 122.31C101.75 120.41 102.65 117.77 102.65 117.77C90.0501 123.36 79.0501 119.7 74.5001 117.61C79.4601 116.29 81.7601 113.31 81.7601 113.31C81.7601 113.31 79.1601 115.05 69.5701 115.05C59.9801 115.05 54.9501 111.87 54.9501 111.87C54.9501 111.87 57.4101 115.57 63.3101 117.33C42.3201 125.19 24.6901 114.59 26.1501 106.33C27.0301 101.34 29.8801 98.1403 32.0901 96.3203C29.4301 96.8903 27.0401 98.4103 25.3101 100.56L25.3201 100.57Z" fill="#4E16D8"/>
<path id="Vector_19" d="M109.1 121.91C104.7 121.91 101.17 119.38 101.12 119.35C93.8 113.22 83.76 106.92 79.59 105.82C75.9 104.85 72.56 102.9 71.65 101.19C71.27 100.47 71.34 99.8896 71.46 99.5396C71.66 98.9796 72.04 98.5496 72.57 98.3096C73.7 97.7896 75.11 98.3096 75.38 98.4096C75.87 98.5996 76.11 99.1496 75.91 99.6396C75.72 100.13 75.17 100.36 74.68 100.17C74.31 100.03 73.64 99.8996 73.35 100.03C73.31 100.05 73.28 100.07 73.24 100.16C73.27 100.76 75.86 102.88 80.06 103.98C84.53 105.15 94.7 111.51 102.28 117.85C102.49 118 108.64 122.38 114.3 118.32C114.73 118.01 115.32 118.11 115.62 118.54C115.93 118.97 115.83 119.56 115.4 119.86C113.28 121.38 111.09 121.91 109.08 121.91H109.1Z" fill="black"/>
<path id="Vector_20" d="M133 156.041H20.6302C20.1102 156.041 19.6802 155.621 19.6802 155.091C19.6802 154.561 20.1002 154.141 20.6302 154.141H133.01C133.53 154.141 133.96 154.561 133.96 155.091C133.96 155.621 133.54 156.041 133.01 156.041H133Z" fill="black"/>
<path id="Vector_21" d="M81.0399 66.7401C80.0899 66.4801 79.0999 67.0301 78.8299 67.9901L77.6399 72.2601C77.5099 72.7201 77.5699 73.2001 77.8099 73.6201C78.0499 74.0401 78.4299 74.3401 78.8899 74.4601C79.0499 74.5001 79.2099 74.5301 79.3699 74.5301C79.6699 74.5301 79.9799 74.4501 80.2499 74.3001C80.6699 74.0601 80.9699 73.6801 81.0999 73.2201L82.2899 68.9501C82.5499 68.0001 81.9999 67.0101 81.0399 66.7401Z" fill="black"/>
<path id="Vector_22" d="M68.77 65.0487C67.82 64.7887 66.83 65.3387 66.56 66.2987L65.37 70.5687C65.11 71.5187 65.66 72.5087 66.62 72.7787C66.78 72.8187 66.94 72.8487 67.1 72.8487C67.88 72.8487 68.61 72.3287 68.83 71.5387L70.02 67.2687C70.29 66.3187 69.73 65.3287 68.77 65.0587V65.0487Z" fill="black"/>
</g>
</svg>
